<svg xmlns="http://www.w3.org/2000/svg" viewBox="0 0 120 100" fill="none"><g stroke="#68563e" stroke-width="2.5" stroke-linejoin="round" stroke-linecap="round"><ellipse cx="61" cy="88" rx="34" ry="7" fill="#6f795c" opacity=".16" stroke="none"/><path d="m43 13 27-2 12 18v54L39 88l-9-12V31Z" fill="#fff8e4"/><path d="m30 31 13-18 8 19-12 12-9-13Z" fill="#c4d5b5"/><path d="m51 32 31-3-12-18-27 2Z" fill="#e0e8cc"/><path d="m39 44 12-12v50l-12 6Z" fill="#e4dfc8"/><path d="m51 47 31-3v26l-31 4Z" fill="#90ad90" stroke="none"/><path d="M66 48c0 0-9 10-9 15 0 9 18 7 18-2 0-5-9-13-9-13Z" fill="#fff9e9" stroke="none"/><path d="m43 13 27-2m-23 7 26-2" stroke="#97ad87"/></g></svg>
