<svg xmlns="http://www.w3.org/2000/svg" viewBox="0 0 120 100" fill="none"><g stroke="#68563e" stroke-width="2.5" stroke-linejoin="round" stroke-linecap="round"><ellipse cx="59" cy="88" rx="40" ry="7" fill="#6f795c" opacity=".16" stroke="none"/><path d="m35 14 47 1-3 15 9 48q0 10-12 10H36q-10 0-10-10l9-48Z" fill="#ccaa70"/><path d="m35 14 8-5h34l5 6M35 24h44" fill="#e6c78e"/><path d="M31 46h52l4 29H27Z" fill="#f9edcd" stroke="none"/><ellipse cx="57" cy="59" rx="13" ry="17" transform="rotate(35 57 59)" fill="#805536"/><path d="M65 46q-18 8-16 26" stroke="#d4b182"/><path d="m39 32-5 11m41-11 2 10" stroke="#a88454"/><ellipse cx="91" cy="81" rx="9" ry="6" transform="rotate(-25 91 81)" fill="#926344"/><path d="m85 84 12-6" stroke="#d4b182"/></g></svg>
