<svg xmlns="http://www.w3.org/2000/svg" viewBox="0 0 120 100" fill="none"><g stroke="#68563e" stroke-width="2.5" stroke-linejoin="round" stroke-linecap="round"><ellipse cx="60" cy="86" rx="49" ry="8" fill="#6f795c" opacity=".16" stroke="none"/><path d="M15 45 80 33l26 15-65 15Z" fill="#a67b51"/><path d="M15 45v31l26 14V63Z" fill="#86a482"/><path d="m41 63 65-15v29L41 90Z" fill="#b5c7a0"/><path d="m18 45 61-12 28 14v7L41 70 13 53v-7Z" fill="#e3c797"/><path d="M30 27 56 22l17 9v24l-26 6-17-10Z" fill="#a3aba0"/><path d="m47 36 26-5v24l-26 6Z" fill="#c6d0bd"/><path d="M53 43h12m-12 6h9" stroke="#465d51"/><path d="m32 26 16 9 24-5-16-8Z" fill="#e4e6d8"/><path d="M78 54v10q0 7 10 4V52Z" fill="#fff7df"/><path d="M89 54q9-3 8 4t-8 5" stroke="#e7d5aa"/><ellipse cx="83" cy="53" rx="6" ry="3" fill="#765139"/></g></svg>