<svg xmlns="http://www.w3.org/2000/svg" viewBox="0 0 120 100" fill="none"><defs><clipPath id="a"><rect x="9" y="11" width="103" height="77" rx="15"/></clipPath></defs><g clip-path="url(#a)"><path fill="#e8dfcc" d="M9 11h103v77H9z"/><path fill="#c8b89d" d="M9 62h103v26H9z"/><path fill="#c9ab91" d="M15 24h40v41H15z"/><path fill="#b5c2b5" d="M59 16h44v41H59z"/><path stroke="#907f68" stroke-width="3" d="M12 24h46m-1-8h49"/><path fill="#6f8c87" d="M21 31h11v12H21zm17 0h11v12H38zm29-7h12v14H67zm19 0h11v14H86zM20 49h30v16H20zm45-6h33v22H65z"/><path fill="#cf9975" d="M17 45h37v8H17z"/><path fill="#889e88" d="M62 39h40v8H62z"/><path stroke="#efdfbd" stroke-width="4" d="M23 45v8m10-8v8m12-8v8m23-14v8m11-8v8m12-8v8"/><path stroke="#ab9a80" d="m18 88 11-22m18 22 4-22m26 22-3-22m32 22-11-22M9 76h103"/><ellipse cx="81" cy="75" rx="13" ry="4" fill="#a38462"/><path stroke="#6e735f" stroke-width="3" d="M81 81V59"/><path fill="#e2c697" d="m62 60 19-15 19 15z"/></g><rect x="9" y="11" width="103" height="77" rx="15" stroke="#68563e" stroke-width="2.5"/></svg>
