<svg xmlns="http://www.w3.org/2000/svg" viewBox="0 0 120 100" fill="none"><defs><clipPath id="a"><rect x="9" y="11" width="103" height="77" rx="15"/></clipPath></defs><g clip-path="url(#a)"><path fill="#dfe7cb" d="M9 11h103v77H9z"/><path fill="#9caf81" d="M9 48h103v40H9z"/><path fill="#dccaa5" d="m45 88 13-36h14l21 36"/><path fill="#d7b998" d="M62 33h32v26H62z"/><path fill="#94775c" d="m57 33 21-15 21 15z"/><path fill="#6e8f85" d="M68 40h8v11h-8zm15 0h8v11h-8z"/><path stroke="#e5dcc0" stroke-width="3" d="M10 62h102m-96-7v15m14-15v15m14-15v15m54-15v15"/><path stroke="#907658" stroke-width="5" d="M29 53V30m74 27V39"/><circle cx="29" cy="29" r="18" fill="#71996e"/><circle cx="37" cy="23" r="11" fill="#a2b887"/><circle cx="105" cy="35" r="13" fill="#779970"/><path stroke="#6b916c" stroke-width="9" stroke-linecap="round" d="m18 79 21-1m48 1 16 2"/><g fill="#e2a6a0"><circle cx="19" cy="77" r="3"/><circle cx="32" cy="76" r="3"/><circle cx="93" cy="78" r="3"/></g></g><rect x="9" y="11" width="103" height="77" rx="15" stroke="#68563e" stroke-width="2.5"/></svg>
